<svg width="156" height="37" viewBox="0 0 156 37" fill="none" xmlns="http://www.w3.org/2000/svg">
<path d="M26.656 13.152C26.656 15.104 26.208 16.896 25.312 18.528C24.416 20.128 23.04 21.424 21.184 22.416C19.328 23.408 17.024 23.904 14.272 23.904H9.184V36H0.976V2.304H14.272C16.96 2.304 19.232 2.768 21.088 3.696C22.944 4.624 24.336 5.904 25.264 7.536C26.192 9.168 26.656 11.04 26.656 13.152ZM13.648 17.376C15.216 17.376 16.384 17.008 17.152 16.272C17.92 15.536 18.304 14.496 18.304 13.152C18.304 11.808 17.92 10.768 17.152 10.032C16.384 9.296 15.216 8.928 13.648 8.928H9.184V17.376H13.648ZM29.2971 22.56C29.2971 19.808 29.8091 17.392 30.8331 15.312C31.8891 13.232 33.3131 11.632 35.1051 10.512C36.8971 9.392 38.8971 8.832 41.1051 8.832C42.9931 8.832 44.6411 9.216 46.0491 9.984C47.4891 10.752 48.5931 11.76 49.3611 13.008V9.216H57.5691V36H49.3611V32.208C48.5611 33.456 47.4411 34.464 46.0011 35.232C44.5931 36 42.9451 36.384 41.0571 36.384C38.8811 36.384 36.8971 35.824 35.1051 34.704C33.3131 33.552 31.8891 31.936 30.8331 29.856C29.8091 27.744 29.2971 25.312 29.2971 22.56ZM49.3611 22.608C49.3611 20.56 48.7851 18.944 47.6331 17.76C46.5131 16.576 45.1371 15.984 43.5051 15.984C41.8731 15.984 40.4811 16.576 39.3291 17.76C38.2091 18.912 37.6491 20.512 37.6491 22.56C37.6491 24.608 38.2091 26.24 39.3291 27.456C40.4811 28.64 41.8731 29.232 43.5051 29.232C45.1371 29.232 46.5131 28.64 47.6331 27.456C48.7851 26.272 49.3611 24.656 49.3611 22.608ZM79.8273 8.928C82.9633 8.928 85.4593 9.952 87.3153 12C89.2033 14.016 90.1473 16.8 90.1473 20.352V36H81.9873V21.456C81.9873 19.664 81.5233 18.272 80.5953 17.28C79.6673 16.288 78.4193 15.792 76.8513 15.792C75.2833 15.792 74.0353 16.288 73.1073 17.28C72.1793 18.272 71.7153 19.664 71.7153 21.456V36H63.5073V9.216H71.7153V12.768C72.5473 11.584 73.6673 10.656 75.0753 9.984C76.4833 9.28 78.0673 8.928 79.8273 8.928ZM94.219 22.56C94.219 19.808 94.731 17.392 95.755 15.312C96.811 13.232 98.235 11.632 100.027 10.512C101.819 9.392 103.819 8.832 106.027 8.832C107.787 8.832 109.387 9.2 110.827 9.936C112.299 10.672 113.451 11.664 114.283 12.912V0.48H122.491V36H114.283V32.16C113.515 33.44 112.411 34.464 110.971 35.232C109.563 36 107.915 36.384 106.027 36.384C103.819 36.384 101.819 35.824 100.027 34.704C98.235 33.552 96.811 31.936 95.755 29.856C94.731 27.744 94.219 25.312 94.219 22.56ZM114.283 22.608C114.283 20.56 113.707 18.944 112.555 17.76C111.435 16.576 110.059 15.984 108.427 15.984C106.795 15.984 105.403 16.576 104.251 17.76C103.131 18.912 102.571 20.512 102.571 22.56C102.571 24.608 103.131 26.24 104.251 27.456C105.403 28.64 106.795 29.232 108.427 29.232C110.059 29.232 111.435 28.64 112.555 27.456C113.707 26.272 114.283 24.656 114.283 22.608ZM126.797 22.56C126.797 19.808 127.309 17.392 128.333 15.312C129.389 13.232 130.813 11.632 132.605 10.512C134.397 9.392 136.397 8.832 138.605 8.832C140.493 8.832 142.141 9.216 143.549 9.984C144.989 10.752 146.093 11.76 146.861 13.008V9.216H155.069V36H146.861V32.208C146.061 33.456 144.941 34.464 143.501 35.232C142.093 36 140.445 36.384 138.557 36.384C136.381 36.384 134.397 35.824 132.605 34.704C130.813 33.552 129.389 31.936 128.333 29.856C127.309 27.744 126.797 25.312 126.797 22.56ZM146.861 22.608C146.861 20.56 146.285 18.944 145.133 17.76C144.013 16.576 142.637 15.984 141.005 15.984C139.373 15.984 137.981 16.576 136.829 17.76C135.709 18.912 135.149 20.512 135.149 22.56C135.149 24.608 135.709 26.24 136.829 27.456C137.981 28.64 139.373 29.232 141.005 29.232C142.637 29.232 144.013 28.64 145.133 27.456C146.285 26.272 146.861 24.656 146.861 22.608Z" fill="#141414"/>
</svg>
